G04 #@! TF.FileFunction,Legend,Top*
%FSLAX46Y46*%
G04 Gerber Fmt 4.6, Leading zero omitted, Abs format (unit mm)*
G04 Created by KiCad (PCBNEW 4.0.4-stable) date Sunday, February 04, 2018 'PMt' 04:47:57 PM*
%MOMM*%
%LPD*%
G01*
G04 APERTURE LIST*
%ADD10C,0.100000*%
%ADD11C,0.300000*%
%ADD12C,0.120000*%
%ADD13C,0.150000*%
G04 APERTURE END LIST*
D10*
D11*
X110457143Y-101742857D02*
X110685714Y-101742857D01*
X110800000Y-101800000D01*
X110914286Y-101914286D01*
X110971428Y-102142857D01*
X110971428Y-102542857D01*
X110914286Y-102771429D01*
X110800000Y-102885714D01*
X110685714Y-102942857D01*
X110457143Y-102942857D01*
X110342857Y-102885714D01*
X110228571Y-102771429D01*
X110171428Y-102542857D01*
X110171428Y-102142857D01*
X110228571Y-101914286D01*
X110342857Y-101800000D01*
X110457143Y-101742857D01*
X111485714Y-102942857D02*
X111485714Y-101742857D01*
X112171429Y-102942857D01*
X112171429Y-101742857D01*
X109114287Y-95542857D02*
X108714287Y-94971429D01*
X108428572Y-95542857D02*
X108428572Y-94342857D01*
X108885715Y-94342857D01*
X109000001Y-94400000D01*
X109057144Y-94457143D01*
X109114287Y-94571429D01*
X109114287Y-94742857D01*
X109057144Y-94857143D01*
X109000001Y-94914286D01*
X108885715Y-94971429D01*
X108428572Y-94971429D01*
X109628572Y-94914286D02*
X110028572Y-94914286D01*
X110200001Y-95542857D02*
X109628572Y-95542857D01*
X109628572Y-94342857D01*
X110200001Y-94342857D01*
X110542858Y-94342857D02*
X110942858Y-95542857D01*
X111342858Y-94342857D01*
X103685714Y-94914286D02*
X103285714Y-94914286D01*
X103285714Y-95542857D02*
X103285714Y-94342857D01*
X103857143Y-94342857D01*
X104200000Y-94342857D02*
X104485714Y-95542857D01*
X104714285Y-94685714D01*
X104942857Y-95542857D01*
X105228571Y-94342857D01*
X105685714Y-95542857D02*
X105685714Y-94342857D01*
X105971429Y-94342857D01*
X106142857Y-94400000D01*
X106257143Y-94514286D01*
X106314286Y-94628571D01*
X106371429Y-94857143D01*
X106371429Y-95028571D01*
X106314286Y-95257143D01*
X106257143Y-95371429D01*
X106142857Y-95485714D01*
X105971429Y-95542857D01*
X105685714Y-95542857D01*
X100000000Y-95542857D02*
X100000000Y-94342857D01*
X95285714Y-94914286D02*
X95457143Y-94971429D01*
X95514286Y-95028571D01*
X95571429Y-95142857D01*
X95571429Y-95314286D01*
X95514286Y-95428571D01*
X95457143Y-95485714D01*
X95342857Y-95542857D01*
X94885714Y-95542857D01*
X94885714Y-94342857D01*
X95285714Y-94342857D01*
X95400000Y-94400000D01*
X95457143Y-94457143D01*
X95514286Y-94571429D01*
X95514286Y-94685714D01*
X95457143Y-94800000D01*
X95400000Y-94857143D01*
X95285714Y-94914286D01*
X94885714Y-94914286D01*
X89714286Y-95200000D02*
X90285715Y-95200000D01*
X89600001Y-95542857D02*
X90000001Y-94342857D01*
X90400001Y-95542857D01*
X106642858Y-119678571D02*
X106142858Y-118964286D01*
X105785715Y-119678571D02*
X105785715Y-118178571D01*
X106357143Y-118178571D01*
X106500001Y-118250000D01*
X106571429Y-118321429D01*
X106642858Y-118464286D01*
X106642858Y-118678571D01*
X106571429Y-118821429D01*
X106500001Y-118892857D01*
X106357143Y-118964286D01*
X105785715Y-118964286D01*
X107285715Y-118892857D02*
X107785715Y-118892857D01*
X108000001Y-119678571D02*
X107285715Y-119678571D01*
X107285715Y-118178571D01*
X108000001Y-118178571D01*
X108428572Y-118178571D02*
X108928572Y-119678571D01*
X109428572Y-118178571D01*
X98857143Y-118250000D02*
X98714286Y-118178571D01*
X98500000Y-118178571D01*
X98285715Y-118250000D01*
X98142857Y-118392857D01*
X98071429Y-118535714D01*
X98000000Y-118821429D01*
X98000000Y-119035714D01*
X98071429Y-119321429D01*
X98142857Y-119464286D01*
X98285715Y-119607143D01*
X98500000Y-119678571D01*
X98642857Y-119678571D01*
X98857143Y-119607143D01*
X98928572Y-119535714D01*
X98928572Y-119035714D01*
X98642857Y-119035714D01*
X99571429Y-119678571D02*
X99571429Y-118178571D01*
X100428572Y-119678571D01*
X100428572Y-118178571D01*
X101142858Y-119678571D02*
X101142858Y-118178571D01*
X101500001Y-118178571D01*
X101714286Y-118250000D01*
X101857144Y-118392857D01*
X101928572Y-118535714D01*
X102000001Y-118821429D01*
X102000001Y-119035714D01*
X101928572Y-119321429D01*
X101857144Y-119464286D01*
X101714286Y-119607143D01*
X101500001Y-119678571D01*
X101142858Y-119678571D01*
X91107143Y-118892857D02*
X90607143Y-118892857D01*
X90607143Y-119678571D02*
X90607143Y-118178571D01*
X91321429Y-118178571D01*
X91750000Y-118178571D02*
X92107143Y-119678571D01*
X92392857Y-118607143D01*
X92678571Y-119678571D01*
X93035714Y-118178571D01*
X93607143Y-119678571D02*
X93607143Y-118178571D01*
X93964286Y-118178571D01*
X94178571Y-118250000D01*
X94321429Y-118392857D01*
X94392857Y-118535714D01*
X94464286Y-118821429D01*
X94464286Y-119035714D01*
X94392857Y-119321429D01*
X94321429Y-119464286D01*
X94178571Y-119607143D01*
X93964286Y-119678571D01*
X93607143Y-119678571D01*
X88857143Y-128250000D02*
X88714286Y-128178571D01*
X88500000Y-128178571D01*
X88285715Y-128250000D01*
X88142857Y-128392857D01*
X88071429Y-128535714D01*
X88000000Y-128821429D01*
X88000000Y-129035714D01*
X88071429Y-129321429D01*
X88142857Y-129464286D01*
X88285715Y-129607143D01*
X88500000Y-129678571D01*
X88642857Y-129678571D01*
X88857143Y-129607143D01*
X88928572Y-129535714D01*
X88928572Y-129035714D01*
X88642857Y-129035714D01*
X89571429Y-129678571D02*
X89571429Y-128178571D01*
X90428572Y-129678571D01*
X90428572Y-128178571D01*
X91142858Y-129678571D02*
X91142858Y-128178571D01*
X91500001Y-128178571D01*
X91714286Y-128250000D01*
X91857144Y-128392857D01*
X91928572Y-128535714D01*
X92000001Y-128821429D01*
X92000001Y-129035714D01*
X91928572Y-129321429D01*
X91857144Y-129464286D01*
X91714286Y-129607143D01*
X91500001Y-129678571D01*
X91142858Y-129678571D01*
X105107143Y-128892857D02*
X105321429Y-128964286D01*
X105392857Y-129035714D01*
X105464286Y-129178571D01*
X105464286Y-129392857D01*
X105392857Y-129535714D01*
X105321429Y-129607143D01*
X105178571Y-129678571D01*
X104607143Y-129678571D01*
X104607143Y-128178571D01*
X105107143Y-128178571D01*
X105250000Y-128250000D01*
X105321429Y-128321429D01*
X105392857Y-128464286D01*
X105392857Y-128607143D01*
X105321429Y-128750000D01*
X105250000Y-128821429D01*
X105107143Y-128892857D01*
X104607143Y-128892857D01*
X100000000Y-129678571D02*
X100000000Y-128178571D01*
X94642857Y-129250000D02*
X95357143Y-129250000D01*
X94500000Y-129678571D02*
X95000000Y-128178571D01*
X95500000Y-129678571D01*
X108571429Y-128178571D02*
X109071429Y-129678571D01*
X109571429Y-128178571D01*
X110071429Y-129107143D02*
X111214286Y-129107143D01*
X110642857Y-129678571D02*
X110642857Y-128535714D01*
D12*
X91150000Y-97250000D02*
X87950000Y-97250000D01*
X87950000Y-95750000D02*
X91150000Y-95750000D01*
X87950000Y-95750000D02*
X87950000Y-97250000D01*
X96150000Y-97250000D02*
X92950000Y-97250000D01*
X92950000Y-95750000D02*
X96150000Y-95750000D01*
X92950000Y-95750000D02*
X92950000Y-97250000D01*
X99000000Y-95750000D02*
X102200000Y-95750000D01*
X102200000Y-97250000D02*
X99000000Y-97250000D01*
X102200000Y-97250000D02*
X102200000Y-95750000D01*
X103850000Y-95750000D02*
X107050000Y-95750000D01*
X107050000Y-97250000D02*
X103850000Y-97250000D01*
X107050000Y-97250000D02*
X107050000Y-95750000D01*
X108850000Y-95750000D02*
X112050000Y-95750000D01*
X112050000Y-97250000D02*
X108850000Y-97250000D01*
X112050000Y-97250000D02*
X112050000Y-95750000D01*
X107250000Y-98900000D02*
X107250000Y-102100000D01*
X105750000Y-102100000D02*
X105750000Y-98900000D01*
X105750000Y-102100000D02*
X107250000Y-102100000D01*
X107430000Y-106440000D02*
X108820000Y-106440000D01*
X107430000Y-109560000D02*
X108820000Y-109560000D01*
X107430000Y-106440000D02*
X106435000Y-106440000D01*
X107430000Y-106440000D02*
X107430000Y-106440000D01*
X108820000Y-109560000D02*
X108820000Y-109560000D01*
X108820000Y-106440000D02*
X108820000Y-107440000D01*
X108820000Y-108560000D02*
X108820000Y-109560000D01*
X107430000Y-107560000D02*
X107430000Y-108440000D01*
X106420000Y-104650000D02*
X106420000Y-103650000D01*
X109780000Y-104650000D02*
X109780000Y-103650000D01*
X99080000Y-98900000D02*
X99080000Y-99900000D01*
X95720000Y-98900000D02*
X95720000Y-99900000D01*
X104980000Y-98900000D02*
X104980000Y-99900000D01*
X101620000Y-98900000D02*
X101620000Y-99900000D01*
D13*
X94925000Y-107075000D02*
X94950000Y-107075000D01*
X94925000Y-102925000D02*
X95030000Y-102925000D01*
X105075000Y-102925000D02*
X104970000Y-102925000D01*
X105075000Y-107075000D02*
X104970000Y-107075000D01*
X94925000Y-107075000D02*
X94925000Y-102925000D01*
X105075000Y-107075000D02*
X105075000Y-102925000D01*
X94950000Y-107075000D02*
X94950000Y-108450000D01*
D12*
X92730000Y-105250000D02*
X92730000Y-107250000D01*
X94770000Y-107250000D02*
X94770000Y-105250000D01*
M02*
