G04 #@! TF.FileFunction,Soldermask,Top*
%FSLAX46Y46*%
G04 Gerber Fmt 4.6, Leading zero omitted, Abs format (unit mm)*
G04 Created by KiCad (PCBNEW 4.0.4-stable) date Sunday, February 04, 2018 'PMt' 04:47:57 PM*
%MOMM*%
%LPD*%
G01*
G04 APERTURE LIST*
%ADD10C,0.100000*%
%ADD11R,1.900000X1.700000*%
%ADD12R,1.700000X1.900000*%
%ADD13R,2.150000X1.000000*%
%ADD14R,0.900000X1.200000*%
%ADD15R,0.800000X1.200000*%
%ADD16R,1.000000X1.900000*%
%ADD17R,2.000000X2.400000*%
%ADD18R,4.400000X8.400000*%
%ADD19C,3.700000*%
G04 APERTURE END LIST*
D10*
D11*
X88800000Y-96500000D03*
X91500000Y-96500000D03*
X93800000Y-96500000D03*
X96500000Y-96500000D03*
X101350000Y-96500000D03*
X98650000Y-96500000D03*
X106200000Y-96500000D03*
X103500000Y-96500000D03*
X111200000Y-96500000D03*
X108500000Y-96500000D03*
D12*
X106500000Y-101250000D03*
X106500000Y-98550000D03*
D13*
X107250000Y-107000000D03*
X107250000Y-109000000D03*
X109000000Y-108000000D03*
D14*
X109300000Y-103250000D03*
D15*
X107700000Y-103250000D03*
X108500000Y-103250000D03*
D14*
X106900000Y-103250000D03*
D15*
X108500000Y-105050000D03*
D14*
X109300000Y-105050000D03*
D15*
X107700000Y-105050000D03*
D14*
X106900000Y-105050000D03*
X96200000Y-100300000D03*
D15*
X97800000Y-100300000D03*
X97000000Y-100300000D03*
D14*
X98600000Y-100300000D03*
D15*
X97000000Y-98500000D03*
D14*
X96200000Y-98500000D03*
D15*
X97800000Y-98500000D03*
D14*
X98600000Y-98500000D03*
X102100000Y-100300000D03*
D15*
X103700000Y-100300000D03*
X102900000Y-100300000D03*
D14*
X104500000Y-100300000D03*
D15*
X102900000Y-98500000D03*
D14*
X102100000Y-98500000D03*
D15*
X103700000Y-98500000D03*
D14*
X104500000Y-98500000D03*
D16*
X95555000Y-107700000D03*
X96825000Y-107700000D03*
X98095000Y-107700000D03*
X99365000Y-107700000D03*
X100635000Y-107700000D03*
X101905000Y-107700000D03*
X103175000Y-107700000D03*
X104445000Y-107700000D03*
X104445000Y-102300000D03*
X103175000Y-102300000D03*
X101905000Y-102300000D03*
X100635000Y-102300000D03*
X99365000Y-102300000D03*
X98095000Y-102300000D03*
X96825000Y-102300000D03*
X95555000Y-102300000D03*
D17*
X93750000Y-108250000D03*
X93750000Y-104250000D03*
D18*
X95000000Y-124000000D03*
X105000000Y-124000000D03*
X100000000Y-124000000D03*
X107500000Y-114000000D03*
X92500000Y-114000000D03*
X97500000Y-114000000D03*
X102500000Y-114000000D03*
X90000000Y-124000000D03*
X110000000Y-124000000D03*
D19*
X109525000Y-100000000D03*
X90475000Y-100000000D03*
M02*
