M48
;DRILL file {KiCad 4.0.4-stable} date Sunday, February 04, 2018 'PMt' 04:48:01 PM
;FORMAT={3:3/ absolute / metric / suppress leading zeros}
FMAT,2
METRIC,TZ
T1C0.400
%
G90
G05
M71
T1
X89300Y-110900
X90100Y-119000
X93400Y-102600
X93800Y-106400
X94900Y-99900
X95200Y-105600
X95997Y-106050
X97393Y-106247
X97500Y-118900
X97517Y-105457
X97600Y-109400
X98100Y-103700
X99218Y-106450
X100000Y-105210
X101073Y-99870
X102500Y-119100
X103119Y-105210
X103800Y-97200
X103800Y-103600
X104156Y-109500
X104900Y-95100
X105800Y-105210
X105800Y-107000
X107800Y-94970
X108000Y-98000
X109360Y-105779
X110035Y-107226
X110600Y-110300
T0
M30
